<svg xmlns="http://www.w3.org/2000/svg" viewBox="0 0 512 512" width="512" height="512">
  <defs>
    <linearGradient id="bg" x1="0" y1="0" x2="0" y2="1">
      <stop offset="0" stop-color="#12161f"/>
      <stop offset="1" stop-color="#0a0d12"/>
    </linearGradient>
    <radialGradient id="glow" cx="0.5" cy="0.12" r="0.8">
      <stop offset="0" stop-color="#7aa2ff" stop-opacity="0.22"/>
      <stop offset="1" stop-color="#7aa2ff" stop-opacity="0"/>
    </radialGradient>
    <radialGradient id="dotglow" cx="0.5" cy="0.5" r="0.5">
      <stop offset="0" stop-color="#f5b043" stop-opacity="0.55"/>
      <stop offset="1" stop-color="#f5b043" stop-opacity="0"/>
    </radialGradient>
  </defs>
  <rect width="512" height="512" rx="116" fill="url(#bg)"/>
  <rect width="512" height="512" rx="116" fill="url(#glow)"/>
  <rect x="6" y="6" width="500" height="500" rx="110" fill="none" stroke="#2a3242" stroke-width="2"/>
  <g transform="translate(96 128) scale(13.34)" fill="none" stroke="#e7ebf3" stroke-width="1.7" stroke-linecap="round" stroke-linejoin="round">
    <path d="M22 12h-6l-2 3h-4l-2-3H2"/>
    <path d="M5.45 5.11 2 12v6a2 2 0 0 0 2 2h16a2 2 0 0 0 2-2v-6l-3.45-6.89A2 2 0 0 0 16.76 4H7.24a2 2 0 0 0-1.79 1.11z"/>
  </g>
  <circle cx="400" cy="128" r="64" fill="url(#dotglow)"/>
  <circle cx="400" cy="128" r="34" fill="#f5b043"/>
  <circle cx="400" cy="128" r="34" fill="none" stroke="#0a0d12" stroke-width="6"/>
</svg>
